<svg width="20" height="20" viewBox="0 0 20 20" fill="none" xmlns="http://www.w3.org/2000/svg">
<path d="M14.5173 10.0158C14.5207 8.88645 14.0976 7.79741 13.3324 6.96665C12.5673 6.13589 11.5167 5.62468 10.3909 5.53533C9.265 5.44597 8.14692 5.78505 7.26034 6.48472C6.37377 7.1844 5.7841 8.19305 5.60932 9.30885C6.06932 9.27185 6.52932 9.28385 6.98632 9.34085C8.33732 9.51085 9.59032 10.0658 10.7553 10.7448C11.4653 11.1598 12.3633 11.2778 13.3073 11.1478C13.7063 11.0918 14.0873 10.9958 14.4353 10.8748C14.4901 10.5915 14.5176 10.3045 14.5173 10.0158ZM5.07732 4.38185L5.00732 4.32385C4.90466 4.25254 4.77901 4.22227 4.65514 4.23901C4.53127 4.25574 4.41815 4.31827 4.3381 4.41426C4.25804 4.51026 4.21684 4.63276 4.22262 4.75762C4.2284 4.88249 4.28074 5.00066 4.36932 5.08885L5.22732 5.94685L5.29732 6.00485C5.39998 6.07616 5.52563 6.10642 5.6495 6.08969C5.77338 6.07295 5.88649 6.01043 5.96655 5.91443C6.0466 5.81844 6.0878 5.69594 6.08202 5.57107C6.07624 5.44621 6.0239 5.32804 5.93532 5.23985L5.07732 4.38185ZM15.7393 5.01885C15.8095 4.91613 15.8388 4.79095 15.8217 4.66775C15.8045 4.54455 15.742 4.43218 15.6464 4.35258C15.5508 4.27298 15.429 4.23187 15.3047 4.23728C15.1804 4.2427 15.0626 4.29424 14.9743 4.38185L14.1153 5.23985L14.0573 5.30985C13.9872 5.41256 13.9578 5.53774 13.975 5.66095C13.9922 5.78415 14.0546 5.89652 14.1502 5.97612C14.2458 6.05572 14.3677 6.09682 14.4919 6.09141C14.6162 6.086 14.734 6.03445 14.8223 5.94685L15.6813 5.08885L15.7393 5.01885ZM10.5203 2.43485C10.4981 2.3119 10.4306 2.20174 10.3312 2.12607C10.2317 2.05039 10.1076 2.01468 9.98314 2.02597C9.85871 2.03726 9.74301 2.09473 9.65883 2.18706C9.57465 2.2794 9.52809 2.3999 9.52832 2.52485V3.73785L9.53632 3.82785C9.55858 3.95079 9.62607 4.06095 9.72549 4.13663C9.82491 4.2123 9.94906 4.24801 10.0735 4.23672C10.1979 4.22543 10.3136 4.16796 10.3978 4.07563C10.482 3.9833 10.5286 3.86279 10.5283 3.73785V2.52385L10.5203 2.43485ZM3.74032 11.9388C4.79632 11.3628 5.77632 11.2048 6.73732 11.3248C7.71132 11.4478 8.69732 11.8598 9.74732 12.4728C10.9503 13.1738 12.3313 13.3018 13.5813 13.1288C14.8293 12.9558 15.9913 12.4778 16.7913 11.9068C16.8993 11.8297 16.9721 11.7128 16.9939 11.5819C17.0156 11.451 16.9845 11.3168 16.9073 11.2088C16.8301 11.1009 16.7132 11.028 16.5823 11.0063C16.4514 10.9845 16.3173 11.0157 16.2093 11.0928C15.5513 11.5628 14.5433 11.9858 13.4443 12.1378C12.3473 12.2898 11.2083 12.1678 10.2513 11.6088C9.14332 10.9628 8.02432 10.4788 6.86132 10.3328C5.68632 10.1858 4.49632 10.3868 3.26132 11.0608C3.20367 11.0923 3.15278 11.1348 3.11155 11.1859C3.07033 11.237 3.03957 11.2958 3.02105 11.3588C3.00252 11.4218 2.99659 11.4878 3.00359 11.5531C3.01058 11.6184 3.03037 11.6817 3.06182 11.7393C3.12534 11.8558 3.23251 11.9422 3.35975 11.9796C3.42276 11.9981 3.48879 12.0041 3.55409 11.9971C3.61939 11.9901 3.68267 11.9703 3.74032 11.9388ZM6.73732 13.3248C5.77632 13.2048 4.79632 13.3628 3.74032 13.9388C3.68267 13.9704 3.61938 13.9902 3.55405 13.9973C3.48873 14.0043 3.42266 13.9985 3.35961 13.98C3.23227 13.9427 3.12497 13.8563 3.06132 13.7398C3.0298 13.6822 3.00995 13.6189 3.00289 13.5536C2.99584 13.4883 3.00172 13.4222 3.0202 13.3591C3.05752 13.2318 3.14389 13.1245 3.26032 13.0608C4.49632 12.3868 5.68632 12.1858 6.86232 12.3328C8.02432 12.4788 9.14332 12.9628 10.2523 13.6088C11.2083 14.1668 12.3473 14.2898 13.4443 14.1388C14.5423 13.9858 15.5513 13.5638 16.2093 13.0928C16.3173 13.0157 16.4514 12.9845 16.5823 13.0063C16.7132 13.028 16.8301 13.1009 16.9073 13.2088C16.9845 13.3168 17.0156 13.451 16.9939 13.5819C16.9721 13.7128 16.8993 13.8297 16.7913 13.9068C15.9913 14.4768 14.8283 14.9558 13.5813 15.1288C12.3313 15.3018 10.9503 15.1738 9.74732 14.4728C8.69732 13.8598 7.71132 13.4478 6.73732 13.3248ZM3.74032 15.9398C4.79632 15.3638 5.77632 15.2058 6.73732 15.3258C7.71132 15.4488 8.69732 15.8608 9.74732 16.4738C10.9503 17.1748 12.3313 17.3028 13.5813 17.1298C14.8293 16.9568 15.9913 16.4788 16.7913 15.9078C16.8993 15.8307 16.9721 15.7138 16.9939 15.5829C17.0156 15.452 16.9845 15.3178 16.9073 15.2098C16.8301 15.1019 16.7132 15.029 16.5823 15.0073C16.4514 14.9855 16.3173 15.0167 16.2093 15.0938C15.5513 15.5638 14.5433 15.9868 13.4443 16.1388C12.3473 16.2908 11.2083 16.1688 10.2513 15.6098C9.14332 14.9638 8.02432 14.4798 6.86132 14.3338C5.68632 14.1868 4.49632 14.3878 3.26132 15.0618C3.14489 15.1254 3.05846 15.2325 3.02105 15.3598C2.98364 15.487 2.9983 15.6239 3.06182 15.7403C3.12534 15.8568 3.23251 15.9432 3.35975 15.9806C3.487 16.018 3.62389 16.0034 3.74032 15.9398Z" fill="black"/>
</svg>
